<?xml version="1.0" encoding="UTF-8"?><svg id="Layer_2" xmlns="http://www.w3.org/2000/svg" viewBox="0 0 1077.42 1077.42"><defs><style>.cls-1{fill:#fff;}.cls-2{fill:none;stroke:#fff;stroke-miterlimit:10;stroke-width:7px;}</style></defs><path class="cls-1" d="M1021.43,642.26l9.09-70.03c1.25-9.6-3.88-18.89-12.67-22.95l-39.69-18.36c-7.37-3.41-12.22-10.57-12.8-18.67-1.69-23.8-5.32-47.05-10.74-69.61-1.85-7.71,.51-15.81,6.25-21.27l32.6-30.97c6.94-6.6,8.86-16.91,4.75-25.56l-30.29-63.79c-4.15-8.74-13.5-13.78-23.08-12.43l-43.3,6.07c-7.99,1.12-15.94-2.22-20.79-8.67-14.16-18.83-29.84-36.45-46.85-52.68-5.74-5.47-8.14-13.57-6.27-21.27l10.65-43.78c2.26-9.31-1.71-19.01-9.85-24.06l-60.02-37.21c-8.22-5.1-18.81-4.27-26.14,2.05l-33.04,28.49c-6.13,5.29-14.64,6.76-22.24,3.95-20.02-7.41-40.74-13.37-62.04-17.74-7.79-1.6-14.15-7.19-16.65-14.73l-14.14-42.68c-3.01-9.09-11.53-15.22-21.1-15.18l-70.61,.25c-9.68,.03-18.21,6.35-21.08,15.59l-12.92,41.68c-2.4,7.75-8.87,13.52-16.82,15.16-23.29,4.8-45.89,11.49-67.62,19.9-7.4,2.86-15.75,1.6-21.93-3.38l-34.96-28.18c-7.46-6.01-17.93-6.55-25.96-1.33l-59.22,38.46c-8.12,5.27-11.87,15.2-9.27,24.52l11.75,42.16c2.17,7.78-.1,16.1-5.86,21.77-16.77,16.48-32.18,34.33-46.06,53.37-4.67,6.4-12.37,9.85-20.24,9.01l-44.78-4.76c-9.52-1.01-18.62,4.21-22.54,12.95l-28.94,64.41c-3.97,8.83-1.74,19.21,5.49,25.63l32.61,28.98c6.04,5.36,8.64,13.58,6.87,21.46-5.08,22.64-8.37,45.96-9.7,69.8-.45,7.95-5.04,15.08-12.15,18.66l-40.21,20.25c-8.55,4.31-13.37,13.63-11.94,23.09l10.56,69.82c1.45,9.57,8.94,17.09,18.5,18.57l43.11,6.69c7.98,1.24,14.63,6.74,17.4,14.33,8.15,22.27,18.08,43.68,29.65,64.04,3.92,6.9,3.89,15.36-.13,22.2l-22.8,38.75c-4.86,8.25-3.86,18.7,2.48,25.88l46.7,52.97c6.4,7.26,16.77,9.52,25.61,5.59l39.96-17.77c7.39-3.29,15.96-2.25,22.4,2.63,18.7,14.17,38.61,26.84,59.53,37.82,7.01,3.68,11.55,10.8,11.87,18.71l1.83,44.92c.39,9.57,6.89,17.8,16.1,20.41l67.95,19.22c9.31,2.63,19.26-1.08,24.56-9.18l23.95-36.57c4.43-6.77,12.2-10.53,20.26-9.93,10.58,.79,21.27,1.19,32.05,1.19,12.94,0,25.74-.59,38.38-1.72,7.91-.71,15.61,2.8,20.18,9.3l25.91,36.82c5.51,7.83,15.43,11.24,24.59,8.44l67.53-20.65c9.25-2.83,15.6-11.34,15.67-21.02l.32-43.66c.06-8.07,4.52-15.44,11.62-19.3,20.76-11.29,40.48-24.24,58.98-38.69,6.25-4.88,14.62-6.09,21.97-3.11l41.73,16.92c8.88,3.6,19.06,1.08,25.24-6.23l45.58-53.94c6.25-7.39,6.97-17.98,1.79-26.16l-23.39-36.88c-4.33-6.83-4.56-15.46-.67-22.55,11.26-20.52,20.89-42.06,28.71-64.46,2.61-7.48,8.99-13.02,16.78-14.5l44.14-8.36c9.41-1.78,16.61-9.41,17.84-18.91Zm-485.11,292.68c-214.72-1.19-388.56-175.03-389.75-389.75-1.2-217.35,176.83-395.39,394.19-394.19,214.72,1.19,388.57,175.03,389.75,389.75,1.2,217.35-176.83,395.39-394.19,394.19Z"/><circle class="cls-2" cx="538.59" cy="540.48" r="355.97"/></svg>