<?xml version="1.0" encoding="UTF-8"?>
    <svg id="Layer_1" xmlns="http://www.w3.org/2000/svg" viewBox="0 0 150 150">
        <defs>
            <style>.cls-1{fill:#033;}.cls-1,.cls-2,.cls-3,.cls-4{stroke:1;}.cls-1,.cls-2,.cls-4{stroke:#fff;}.cls-2{fill:#001c1b;}.cls-3{fill:#5ae5e5;stroke:#2e2eed;}.cls-4{fill:#2d415e;}.cls-5{fill:#f2f2f2;}</style>
        </defs>
            <g>
                <polygon class="cls-1" points="24.1 109.84 74.1 139.91 129.51 108.98 78.88 82.39 24.1 109.84"/>
                <polygon class="cls-4" points="82 11 82.56 78.02 133.2 104.61 133.61 43.4 82 11"/>
                <polygon class="cls-1" points="77.28 11.19 20.73 42.19 19.73 106.15 77.04 77.17 77.28 11.19"/></g><g>
                <polygon class="cls-5" points="104.99 70.66 84.49 48.4 54.97 55.03 45.95 83.91 66.44 106.16 95.96 99.53 104.99 70.66"/><g>
                <polygon class="cls-3" points="39.81 88.54 63.27 113.88 99.86 105.43 75.47 81.97 39.81 88.54"/>
                <polygon class="cls-3" points="88.6 42.56 78.28 80.1 102.68 103.56 113 68.84 88.6 42.56"/>
                <polygon class="cls-3" points="86.3 41.24 49.05 49.54 37.93 85.73 75.28 78.7 86.3 41.24"/></g></g>
    </svg>