<?xml version="1.0" encoding="UTF-8"?><svg id="Layer_1" xmlns="http://www.w3.org/2000/svg" viewBox="0 0 150 150"><path d="M78.5,55c-12.43,0-22.5,10.07-22.5,22.5s10.07,22.5,22.5,22.5,22.5-10.07,22.5-22.5-10.07-22.5-22.5-22.5Zm0,38.23c-8.69,0-15.73-7.04-15.73-15.73s7.04-15.73,15.73-15.73,15.73,7.04,15.73,15.73-7.04,15.73-15.73,15.73Z"/><path d="M83.14,125.65c1.72,8.35-.39,18.85-3.99,19.33-.09,.01-.18,.02-.28,.02s-.18,0-.28-.02c-3.6-.48-5.72-10.98-3.99-19.33l1.36-6.59,2.9-14.07,2.9,14.07,1.36,6.59Z"/><path d="M113.21,110.96c6.69,5.29,11.82,14.69,9.37,17.37-.06,.07-.13,.13-.2,.19s-.14,.11-.22,.16c-3.07,1.95-11.44-4.74-15.48-12.24l-3.19-5.92-6.82-12.64,11.27,8.91,5.28,4.17Z"/><path d="M126.81,80.38c8.52-.25,18.49,3.65,18.34,7.29,0,.09-.01,.18-.03,.27s-.04,.18-.07,.27c-1.1,3.46-11.81,3.72-19.73,.57l-6.25-2.48-13.35-5.3,14.36-.42,6.72-.2Z"/><path d="M117.56,48.22c6.37-5.67,16.52-9.09,18.73-6.21,.06,.07,.11,.15,.15,.23s.09,.16,.12,.25c1.38,3.36-6.65,10.44-14.74,13.12l-6.38,2.11-13.63,4.52,10.73-9.55,5.02-4.47Z"/><path d="M89.81,29.52c1.23-8.44,6.81-17.58,10.36-16.8,.09,.02,.18,.05,.26,.08s.17,.07,.25,.11c3.22,1.68,1.62,12.27-2.86,19.53l-3.53,5.72-7.54,12.22,2.08-14.21,.97-6.65Z"/><path d="M56.53,33.04c-4.48-7.26-6.08-17.84-2.86-19.53,.08-.04,.17-.08,.25-.11s.18-.06,.26-.08c3.55-.78,9.13,8.36,10.36,16.8l.97,6.65,2.08,14.21-7.54-12.22-3.53-5.72Z"/><path d="M33.29,57.13c-8.09-2.68-16.13-9.76-14.74-13.12,.04-.09,.08-.17,.12-.25s.1-.16,.15-.23c2.22-2.88,12.37,.54,18.73,6.21l5.02,4.47,10.73,9.55-13.63-4.52-6.38-2.11Z"/><path d="M30.98,90.51c-7.92,3.15-18.63,2.89-19.73-.57-.03-.09-.05-.18-.07-.27s-.03-.18-.03-.27c-.15-3.63,9.82-7.53,18.34-7.29l6.72,.2,14.36,.42-13.35,5.3-6.25,2.48Z"/><path d="M50.67,117.58c-4.05,7.5-12.41,14.19-15.48,12.24-.08-.05-.15-.1-.22-.16s-.14-.12-.2-.19c-2.45-2.68,2.68-12.08,9.37-17.37l5.28-4.17,11.27-8.91-6.82,12.64-3.19,5.92Z"/></svg>