<?xml version="1.0" encoding="UTF-8"?><svg xmlns="http://www.w3.org/2000/svg" viewBox="0 0 435.41 485.14"><g id="a"/><g id="b"><g id="c"><path d="M433.66,203.91l-1.78-.64c-4.49-1.6-9.11-2.77-13.83-3.45-6.49-.92-13.03-1.38-19.58-1.38-2.01,0-3.47-.02-4.59-.04-6.01-.11-12.64-4.79-14.83-10.39-3.38-8.7-7.47-17.06-12.19-25.04-15.06-25.4-36.58-46.77-62.38-62.02-15.48-34.57-42.14-62.93-75.68-80.54L190.72,.43c-.55-.29-1.14-.43-1.71-.43-1.51,0-2.94,.94-3.47,2.48-6.88,19.96-16.54,38.7-28.63,55.73-12.11,17.02-26.64,32.31-43.24,45.34l-.04,.04c-10.76,6.78-20.75,14.64-29.75,23.41-1.12,1.09-2.22,2.18-3.29,3.29-10.74-5.33-22.51-8.06-34.38-8.06-4.44,0-8.89,.37-13.31,1.15-1.68,.3-2.57,2.15-1.74,3.63l5.24,9.56c9.57,17.44,11.34,38.13,4.7,56.87-6.1,17.24-9.45,35.66-9.56,54.78-.1,19.04,2.97,37.37,8.74,54.55l-.04-.04c-8.43-3.68-14.43-5.95-19.81-5.95-6.38,0-11.89,3.2-19.53,11.01-1.74,1.78-.79,4.79,1.67,5.24l3.29,.59c31.85,5.79,46.48,26.52,69.49,49.26l.35,.34c9.54,10.6,20.41,20.07,32.34,28.18,6.1,4.15,12.48,7.94,19.14,11.33,6.37,3.27,12.68,5.61,19.05,7.3h-32.21c0,14.26,16.93,18.62,39.21,19.67-1.91,2.95-1.05,10.98,2.27,8.6,15.63-11.25,1.78,23.64,23.69,41.63,7.75,6.36,15.91,6.1,15.8,3.4-1.61-38.84,55.36-38.58,76.78-45.27,3.93-1.23,3.92-5.65,1.69-8.63,19.96-1.45,34.6-6.14,34.6-19.4h-33.62c7.22-1.69,14.1-4.04,20.47-7.3,6.63-3.39,13.02-7.17,19.13-11.33,20.87-14.17,38.47-32.52,51.52-53.79,13.04-21.26,21.53-45.48,24.14-71.33,8.19-12.44,13.57-22.24,19.81-31.27,6.23-9.03,13.32-17.27,24.94-26.57,1.61-1.28,1.18-3.84-.76-4.54Zm-224.12,173.89c-62.3,0-112.8-50.5-112.8-112.8s50.5-112.8,112.8-112.8,112.8,50.5,112.8,112.8c0,62.3-50.5,112.8-112.8,112.8Z" fill="#fff"/></g></g></svg>